<svg height="184" width="184"><defs><linearGradient id="b"><stop offset="0" stop-color="#666"/><stop offset="1" stop-color="#666" stop-opacity="0"/></linearGradient><linearGradient id="a"><stop offset="0" stop-color="#4d4d4d"/><stop offset="1" stop-color="#4d4d4d" stop-opacity="0"/></linearGradient><linearGradient gradientUnits="userSpaceOnUse" y2="182.362" x2="151" y1="399" x1="421" id="c" xlink:href="#a"/><linearGradient gradientUnits="userSpaceOnUse" y2="249" x2="280" y1="386" x1="370" id="e" xlink:href="#b"/><linearGradient y2="182" x2="151" y1="399" x1="421" gradientUnits="userSpaceOnUse" id="d" xlink:href="#a"/></defs><path d="M334.285 249.506a92.857 92.857 0 0 0-92.857 92.855 92.857 92.857 0 0 0 92.857 92.858 92.857 92.857 0 0 0 92.858-92.858 92.857 92.857 0 0 0-92.858-92.855zm0 19.682a73.175 73.175 0 0 1 73.176 73.173 73.175 73.175 0 0 1-73.176 73.176 73.175 73.175 0 0 1-73.174-73.176 73.175 73.175 0 0 1 73.174-73.174z" fill="url(#d)" transform="translate(-241.428 -251.219)"/><path d="M332.857 290.245l-56.956 75.94h113.91z" fill="url(#e)" fill-rule="evenodd" transform="translate(-241.428 -251.219)"/></svg>